<svg width="96" height="96" viewBox="0 0 96 96" fill="none" xmlns="http://www.w3.org/2000/svg">
  <title>SakuraBox</title>
  <defs>
    <linearGradient id="sakura-surface" x1="17" y1="10" x2="80" y2="77" gradientUnits="userSpaceOnUse">
      <stop stop-color="#F1739B"/>
      <stop offset="1" stop-color="#C83D6B"/>
    </linearGradient>
  </defs>
  <path d="M21 11H75C82.732 11 89 17.268 89 25V57C89 64.732 82.732 71 75 71H45L27 85V71H21C13.268 71 7 64.732 7 57V25C7 17.268 13.268 11 21 11Z" fill="url(#sakura-surface)"/>
  <path d="M21 12H75C82.18 12 88 17.82 88 25V57C88 64.18 82.18 70 75 70H44.657L28 82.955V70H21C13.82 70 8 64.18 8 57V25C8 17.82 13.82 12 21 12Z" stroke="#8F294F" stroke-opacity="0.28" stroke-width="2"/>
  <g fill="#FFF9FB">
    <ellipse cx="48" cy="31" rx="6.6" ry="12"/>
    <ellipse cx="48" cy="31" rx="6.6" ry="12" transform="rotate(72 48 43)"/>
    <ellipse cx="48" cy="31" rx="6.6" ry="12" transform="rotate(144 48 43)"/>
    <ellipse cx="48" cy="31" rx="6.6" ry="12" transform="rotate(216 48 43)"/>
    <ellipse cx="48" cy="31" rx="6.6" ry="12" transform="rotate(288 48 43)"/>
  </g>
  <circle cx="48" cy="43" r="5.5" fill="#FFD4E1"/>
  <path d="M72 22L73.4 25.6L77 27L73.4 28.4L72 32L70.6 28.4L67 27L70.6 25.6L72 22Z" fill="#FFF9FB"/>
</svg>
